<svg width="200" height="200" viewBox="0 0 200 200" fill="none" xmlns="http://www.w3.org/2000/svg">
<circle cx="100" cy="100" r="96.5" fill="#FF7575" stroke="#FF5252" stroke-width="7"/>
<path d="M46.064 117.288C42.736 117.288 39.728 116.552 37.04 115.08C34.384 113.608 32.288 111.576 30.752 108.984C29.248 106.36 28.496 103.432 28.496 100.2C28.496 96.968 29.248 94.056 30.752 91.464C32.288 88.84 34.4 86.792 37.088 85.32C39.776 83.848 42.784 83.112 46.112 83.112C48.608 83.112 50.912 83.528 53.024 84.36C55.136 85.192 56.928 86.408 58.4 88.008L56.144 90.264C53.52 87.608 50.208 86.28 46.208 86.28C43.552 86.28 41.136 86.888 38.96 88.104C36.784 89.32 35.072 90.984 33.824 93.096C32.608 95.208 32 97.576 32 100.2C32 102.824 32.608 105.192 33.824 107.304C35.072 109.416 36.784 111.08 38.96 112.296C41.136 113.512 43.552 114.12 46.208 114.12C50.24 114.12 53.552 112.776 56.144 110.088L58.4 112.344C56.928 113.944 55.12 115.176 52.976 116.04C50.864 116.872 48.56 117.288 46.064 117.288ZM65.972 83.4H69.524V113.928H88.34V117H65.972V83.4ZM94.2376 83.4H97.7896V117H94.2376V83.4ZM123.314 117.288C119.986 117.288 116.978 116.552 114.29 115.08C111.634 113.608 109.538 111.576 108.002 108.984C106.498 106.36 105.746 103.432 105.746 100.2C105.746 96.968 106.498 94.056 108.002 91.464C109.538 88.84 111.65 86.792 114.338 85.32C117.026 83.848 120.034 83.112 123.362 83.112C125.858 83.112 128.162 83.528 130.274 84.36C132.386 85.192 134.178 86.408 135.65 88.008L133.394 90.264C130.77 87.608 127.458 86.28 123.458 86.28C120.802 86.28 118.386 86.888 116.21 88.104C114.034 89.32 112.322 90.984 111.074 93.096C109.858 95.208 109.25 97.576 109.25 100.2C109.25 102.824 109.858 105.192 111.074 107.304C112.322 109.416 114.034 111.08 116.21 112.296C118.386 113.512 120.802 114.12 123.458 114.12C127.49 114.12 130.802 112.776 133.394 110.088L135.65 112.344C134.178 113.944 132.37 115.176 130.226 116.04C128.114 116.872 125.81 117.288 123.314 117.288ZM153.638 101.208L146.774 108.168V117H143.222V83.4H146.774V103.704L166.502 83.4H170.582L156.038 98.616L171.59 117H167.366L153.638 101.208Z" fill="white"/>
<g clip-path="url(#clip0)">
<path d="M18.9918 112.054C20.1688 111.699 21.4099 127.698 33.6187 144.607C45.7737 161.637 60.6391 167.912 60.0322 168.956C59.2495 170.068 40.283 164.168 28.6301 147.651C17.0595 131.607 17.6929 112.355 18.9918 112.054Z" fill="white"/>
</g>
<g clip-path="url(#clip1)">
<path d="M180.763 80.561C179.612 80.9938 177.3 65.114 163.984 49.0629C150.714 32.8865 135.461 27.623 135.997 26.5408C136.703 25.3789 156.023 29.9933 168.758 45.6912C181.379 60.9222 182.039 80.1737 180.763 80.561Z" fill="white"/>
</g>
<defs>
<clipPath id="clip0">
<rect width="60.5333" height="36.8" fill="white" transform="translate(18.8698 112) rotate(23.833)"/>
</clipPath>
<clipPath id="clip1">
<rect width="60.5333" height="36.8" fill="white" transform="translate(180.888 80.6065) rotate(-160.014)"/>
</clipPath>
</defs>
</svg>
